<mxfile host="65bd71144e">
    <diagram id="tcHdCwaa5LzMRy8imAN9" name="Page-1">
        <mxGraphModel dx="625" dy="1588" grid="1" gridSize="10" guides="1" tooltips="1" connect="1" arrows="1" fold="1" page="1" pageScale="1" pageWidth="850" pageHeight="1100" math="0" shadow="0">
            <root>
                <mxCell id="0"/>
                <mxCell id="1" parent="0"/>
                <mxCell id="12" style="edgeStyle=none;html=1;exitX=-0.03;exitY=0.537;exitDx=0;exitDy=0;exitPerimeter=0;" edge="1" parent="1" source="7">
                    <mxGeometry relative="1" as="geometry">
                        <mxPoint x="500" y="-130" as="targetPoint"/>
                    </mxGeometry>
                </mxCell>
                <mxCell id="13" style="edgeStyle=none;rounded=0;html=1;exitX=0.711;exitY=0.674;exitDx=0;exitDy=0;exitPerimeter=0;entryX=-0.06;entryY=0.432;entryDx=0;entryDy=0;entryPerimeter=0;" edge="1" parent="1" source="8" target="7">
                    <mxGeometry relative="1" as="geometry">
                        <mxPoint x="280" y="-290" as="targetPoint"/>
                        <Array as="points">
                            <mxPoint x="315" y="-320"/>
                        </Array>
                    </mxGeometry>
                </mxCell>
                <mxCell id="7" value="This is goodest" style="triangle;whiteSpace=wrap;html=1;fillColor=#0050ef;direction=north;fontColor=#ffffff;strokeColor=#001DBC;" vertex="1" parent="1">
                    <mxGeometry x="220" y="-410" width="190" height="100" as="geometry"/>
                </mxCell>
                <mxCell id="11" value="" style="edgeStyle=none;html=1;rounded=0;" edge="1" parent="1" source="10" target="8">
                    <mxGeometry relative="1" as="geometry"/>
                </mxCell>
                <mxCell id="8" value="This is goodest" style="triangle;whiteSpace=wrap;html=1;fillColor=#d80073;direction=north;fontColor=#ffffff;strokeColor=#A50040;" vertex="1" parent="1">
                    <mxGeometry x="30" y="-150" width="190" height="90" as="geometry"/>
                </mxCell>
                <mxCell id="10" value="This is goodest" style="triangle;whiteSpace=wrap;html=1;fillColor=#60a917;direction=north;fontColor=#ffffff;strokeColor=#2D7600;" vertex="1" parent="1">
                    <mxGeometry x="430" y="-170" width="190" height="100" as="geometry"/>
                </mxCell>
                <mxCell id="14" value="" style="shape=cylinder3;whiteSpace=wrap;html=1;boundedLbl=1;backgroundOutline=1;size=15;fillColor=default;gradientColor=none;" vertex="1" parent="1">
                    <mxGeometry x="285" y="-240" width="60" height="80" as="geometry"/>
                </mxCell>
            </root>
        </mxGraphModel>
    </diagram>
</mxfile>